<svg class="animated" id="freepik_stories-photo-sharing" xmlns="http://www.w3.org/2000/svg" xmlns:xlink="http://www.w3.org/1999/xlink" viewBox="0 0 500 500" version="1.1" xmlns:svgjs="http://svgjs.com/svgjs"><style>svg#freepik_stories-photo-sharing:not(.animated) .animable {opacity: 0;}svg#freepik_stories-photo-sharing.animated #freepik--speech-bubble--inject-8 {animation: 1.5s Infinite  linear floating;animation-delay: 0s;}svg#freepik_stories-photo-sharing.animated #freepik--Icons--inject-8 {animation: 1.5s Infinite  linear wind;animation-delay: 0s;}            @keyframes floating {                0% {                    opacity: 1;                    transform: translateY(0px);                }                50% {                    transform: translateY(-10px);                }                100% {                    opacity: 1;                    transform: translateY(0px);                }            }                    @keyframes wind {                0% {                    transform: rotate( 0deg );                }                25% {                    transform: rotate( 1deg );                }                75% {                    transform: rotate( -1deg );                }            }        </style><g id="freepik--Floor--inject-8" class="animable" style="transform-origin: 244.985px 355.277px;"><path id="freepik--floor--inject-8" d="M97.86,427.48c81.26,39.88,213,39.88,294.25,0s81.26-104.53,0-144.41-213-39.87-294.25,0S16.6,387.6,97.86,427.48Z" style="fill: rgb(245, 245, 245); transform-origin: 244.985px 355.277px;" class="animable"></path></g><g id="freepik--Shadows--inject-8" class="animable" style="transform-origin: 264.628px 354.751px;"><path id="freepik--Shadow--inject-8" d="M143.08,366l11.22,6.43a4.79,4.79,0,0,0,4.33,0l126.15-72.81a1.32,1.32,0,0,0,0-2.5l-11.2-6.41a4.79,4.79,0,0,0-4.33,0L143.07,363.45A1.32,1.32,0,0,0,143.08,366Z" style="fill: rgb(224, 224, 224); transform-origin: 213.886px 331.57px;" class="animable"></path><ellipse id="freepik--shadow--inject-8" cx="358.08" cy="385.74" rx="29.08" ry="15.35" style="fill: rgb(224, 224, 224); transform-origin: 358.08px 385.74px;" class="animable"></ellipse><ellipse id="freepik--shadow--inject-8" cx="327.56" cy="401.87" rx="33.04" ry="17.44" style="fill: rgb(224, 224, 224); transform-origin: 327.56px 401.87px;" class="animable"></ellipse></g><g id="freepik--Clouds--inject-8" class="animable" style="transform-origin: 373.455px 95.8039px;"><g id="freepik--clouds--inject-8" class="animable" style="transform-origin: 373.455px 95.8039px;"><path id="freepik--Cloud--inject-8" d="M368.34,76.8l7.41,4.27a8.18,8.18,0,0,1-.06-1V78c0-3.82,2.68-5.37,6-3.46a11.6,11.6,0,0,1,3.57,3.43c.54-4.8,4.31-6.59,8.89-4,4.94,2.86,8.95,9.81,8.95,15.52V92.7a8.52,8.52,0,0,1-.75,3.72l6.15,3.55a7.35,7.35,0,0,1,3.32,5.75c0,2.12-1.49,3-3.32,1.92L368.34,84.47A7.36,7.36,0,0,1,365,78.71C365,76.6,366.51,75.74,368.34,76.8Z" style="fill: rgb(235, 235, 235); transform-origin: 388.41px 90.4429px;" class="animable"></path><path id="freepik--cloud--inject-8" d="M337.57,95.88,343,99a5.81,5.81,0,0,1-.05-.72V96.72c0-2.8,2-3.93,4.39-2.53A8.53,8.53,0,0,1,350,96.7c.39-3.52,3.15-4.83,6.51-2.89A14.49,14.49,0,0,1,363,105.18v2.36a6.12,6.12,0,0,1-.56,2.72l4.51,2.61a5.35,5.35,0,0,1,2.44,4.21c0,1.56-1.09,2.19-2.44,1.41l-29.42-17a5.37,5.37,0,0,1-2.44-4.22C335.13,95.73,336.22,95.1,337.57,95.88Z" style="fill: rgb(235, 235, 235); transform-origin: 352.24px 105.868px;" class="animable"></path></g></g><g id="freepik--Device--inject-8" class="animable" style="transform-origin: 244.92px 219.123px;"><g id="freepik--device--inject-8" class="animable" style="transform-origin: 244.92px 219.123px;"><g id="freepik--device-2--inject-8" class="animable" style="transform-origin: 213.925px 201.121px;"><path d="M154.19,365.62,151.37,364a9.17,9.17,0,0,1-4.15-7.18V109.63a9.19,9.19,0,0,1,4.15-7.19l114-65.81a9.11,9.11,0,0,1,8.29,0l2.82,1.63a9.13,9.13,0,0,1,4.15,7.18V292.62a9.14,9.14,0,0,1-4.15,7.18l-114,65.82A9.17,9.17,0,0,1,154.19,365.62Z" style="fill: rgb(55, 71, 79); transform-origin: 213.925px 201.121px;" id="elafmn9vn4p1" class="animable"></path><path d="M163.89,114.47l-15.46-8.93a8.49,8.49,0,0,0-1.21,4.09V356.81a9.17,9.17,0,0,0,4.15,7.18l2.82,1.63a9.17,9.17,0,0,0,8.29,0l1.41-.82Z" style="fill: rgb(38, 50, 56); transform-origin: 155.555px 236.075px;" id="el3zi31qwusfo" class="animable"></path><path d="M158.33,116.05V363.22c0,2.65,1.86,3.72,4.15,2.4l114-65.82a9.14,9.14,0,0,0,4.15-7.18V45.44c0-2.65-1.85-3.72-4.15-2.4l-114,65.82A9.19,9.19,0,0,0,158.33,116.05Z" style="fill: rgb(69, 90, 100); transform-origin: 219.48px 204.33px;" id="elqvlqr8e0s8b" class="animable"></path><path d="M167.45,131.67,271.52,71.59c2-1.14,3.55-.22,3.55,2V270.83a7.86,7.86,0,0,1-3.55,6.16L167.45,337.08c-2,1.13-3.55.21-3.55-2.06V137.83A7.88,7.88,0,0,1,167.45,131.67Z" style="fill: rgb(250, 250, 250); transform-origin: 219.485px 204.331px;" id="elp5yjhalmqr" class="animable"></path><path d="M219.48,82.37c1.54-.88,2.78-.17,2.78,1.61a6.12,6.12,0,0,1-2.78,4.81c-1.53.89-2.78.17-2.78-1.6A6.16,6.16,0,0,1,219.48,82.37Z" style="fill: rgb(38, 50, 56); transform-origin: 219.48px 85.5823px;" id="elnjo1skqe0cr" class="animable"></path><path d="M211.46,96.26c5.64-3.13,15.72-9.12,21.29-12.4.94-.55,1.71-.17,1.71.86a3.66,3.66,0,0,1-1.72,2.85L211.41,99.89c-.95.55-1.72.16-1.72-.87A3.52,3.52,0,0,1,211.46,96.26Z" style="fill: rgb(38, 50, 56); transform-origin: 222.075px 91.8739px;" id="elqcmjdbw27vg" class="animable"></path><path d="M206.07,99.37c.86-.5,1.56-.09,1.56.9a3.43,3.43,0,0,1-1.56,2.7c-.86.5-1.56.1-1.56-.9A3.46,3.46,0,0,1,206.07,99.37Z" style="fill: rgb(38, 50, 56); transform-origin: 206.07px 101.171px;" id="els8k9az6hw1" class="animable"></path><path d="M219.48,313.45c3.07-1.77,5.56-.33,5.56,3.21a12.28,12.28,0,0,1-5.56,9.63c-3.07,1.77-5.56.34-5.56-3.21A12.31,12.31,0,0,1,219.48,313.45Z" style="fill: rgb(38, 50, 56); transform-origin: 219.48px 319.871px;" id="elhrgkbt1imsr" class="animable"></path></g><polygon points="173.66 273.92 173.66 167.87 265.5 114.84 265.5 220.9 173.66 273.92" style="fill: rgb(235, 235, 235); transform-origin: 219.58px 194.38px;" id="eleyhjhszu47" class="animable"></polygon><g style="clip-path: url(&quot;#freepik--clip-path--inject-8&quot;); transform-origin: 253.382px 277.519px;" id="eln9ubmwxt16" class="animable"><g id="freepik--Character--inject-8" class="animable" style="transform-origin: 266.17px 262.142px;"><path d="M260.57,188.93l-21.14,1.85A13.93,13.93,0,0,1,224,176.69v-3.76c-.28-10.07,7.74-19.19,17.84-20.35h0a16.52,16.52,0,0,1,18.79,16.15Z" style="fill: rgb(38, 50, 56); transform-origin: 242.311px 171.642px;" id="el7pftqina4pg" class="animable"></path><path d="M227.24,162.64l-4.18-1.88a2.46,2.46,0,0,1,3.16-1.32A2.34,2.34,0,0,1,227.24,162.64Z" style="fill: rgb(38, 50, 56); transform-origin: 225.289px 160.955px;" id="el8do2ot3yqly" class="animable"></path><path d="M227.31,161.41,226,157a2.13,2.13,0,0,1,3,1.26A2.73,2.73,0,0,1,227.31,161.41Z" style="fill: rgb(38, 50, 56); transform-origin: 227.533px 159.089px;" id="el90pi3gg2qi9" class="animable"></path><path d="M193.9,178.4l-4.18-1.88a2.46,2.46,0,0,1,3.16-1.33A2.35,2.35,0,0,1,193.9,178.4Z" style="fill: rgb(38, 50, 56); transform-origin: 191.949px 176.711px;" id="el2eezlmbqsgi" class="animable"></path><path d="M250.88,190.59c2.61-.52,6.33-2.58,10.15,4.23s11.25,21.48,11.25,21.48l16.44-13.59,4.63,4.63s-16.54,17.62-19,20.25c-1.93,2.09-4.22,2.53-6.73-.42-2.93-3.48-12.21-17.73-12.21-17.73Z" style="fill: rgb(177, 102, 104); transform-origin: 272.115px 209.58px;" id="el1su0fxob851" class="animable"></path><path d="M287.22,208.14,333,178.54l.94,2.57-45.14,29.21C286.31,211.86,285.28,209.28,287.22,208.14Z" style="fill: #447BF7; transform-origin: 310.075px 194.669px;" id="elb6hg6r8qzo" class="animable"></path><g id="el5st13nfa5ae"><g style="opacity: 0.1; transform-origin: 310.075px 194.669px;" class="animable" id="elj1f173s5jkg"><path d="M287.22,208.14,333,178.54l.94,2.57-45.14,29.21C286.31,211.86,285.28,209.28,287.22,208.14Z" id="ell3moczele0p" class="animable" style="transform-origin: 310.075px 194.669px;"></path></g></g><path d="M341.21,161.93,333,167.36a1,1,0,0,0-.42.76v19.39c0,.27.19.36.42.21l8.18-5.44a1,1,0,0,0,.41-.76V162.13C341.62,161.86,341.44,161.77,341.21,161.93Z" style="fill: rgb(55, 71, 79); transform-origin: 337.087px 174.821px;" id="el8mtx93eqcad" class="animable"></path><path d="M333,167.36l8.18-5.43c.2-.14.37-.08.41.12a.88.88,0,0,0-.41-.61l-.34-.16a.93.93,0,0,0-.84.07l-8.17,5.44a1,1,0,0,0-.3.33l1.18.58A1,1,0,0,1,333,167.36Z" style="fill: rgb(69, 90, 100); transform-origin: 336.56px 164.456px;" id="el17i1bbym45x" class="animable"></path><path d="M331.44,186.94a.82.82,0,0,0,.42.69l.34.16a.92.92,0,0,0,.76,0c-.2.09-.35,0-.35-.25V168.12a.89.89,0,0,1,.13-.42l-1.18-.58a.88.88,0,0,0-.12.43Z" style="fill: rgb(38, 50, 56); transform-origin: 332.2px 177.496px;" id="elirysm826vrg" class="animable"></path><path d="M339.05,173.56l2.57-1.71c.53-.35,1-.21,1,.3a2.18,2.18,0,0,1-1,1.57l-2.56,1.71C338.53,175.78,338.52,173.91,339.05,173.56Z" style="fill: #447BF7; transform-origin: 340.639px 173.565px;" id="elnta1qjw7oq7" class="animable"></path><path d="M339.05,177.1l2.57-1.71c.53-.35,1-.21,1,.3a2.18,2.18,0,0,1-1,1.57L339.06,179C338.53,179.32,338.52,177.45,339.05,177.1Z" style="fill: #447BF7; transform-origin: 340.639px 177.117px;" id="elq8leghjzjtm" class="animable"></path><path d="M334.45,167.49a1.72,1.72,0,0,0-.69,1.29v1.47c0,.47.31.64.69.39a1.75,1.75,0,0,0,.68-1.29v-1.48C335.13,167.41,334.82,167.24,334.45,167.49Z" style="fill: rgb(38, 50, 56); transform-origin: 334.445px 169.065px;" id="elszkr75nx0fs" class="animable"></path><path d="M334.45,168a.75.75,0,0,0-.3.54c0,.19.14.25.3.14a.73.73,0,0,0,.29-.53C334.74,168,334.61,167.94,334.45,168Z" style="fill: rgb(245, 245, 245); transform-origin: 334.445px 168.356px;" id="elyhk1bic5rx" class="animable"></path><path d="M334.45,169.2a.74.74,0,0,0-.3.53c0,.19.14.26.3.15a.73.73,0,0,0,.29-.54C334.74,169.16,334.61,169.09,334.45,169.2Z" style="fill: rgb(245, 245, 245); transform-origin: 334.445px 169.54px;" id="el79881uyxlkk" class="animable"></path><path d="M342.1,171.41a.89.89,0,0,1,.48.76V176a1.21,1.21,0,0,1-.47.88l-.49.34V171.2Z" style="fill: #447BF7; transform-origin: 342.1px 174.21px;" id="elckxt75vveci" class="animable"></path><path d="M284.63,206.09c1.85-1.89,5-5.5,6.69-6.32s7.41-1.4,8.68-2,1.56,1,.28,1.95l-11.84,7.65Z" style="fill: rgb(177, 102, 104); transform-origin: 292.869px 202.504px;" id="eljcdsp8bj16b" class="animable"></path><path d="M290,209.54l2.91-1.88a5,5,0,0,1-1.39-1.23,2.4,2.4,0,0,1-.07-1.9,3.29,3.29,0,0,1,1.41-1.5,12.81,12.81,0,0,1,4.78-2.19,13.29,13.29,0,0,1,4.06-.25,2.18,2.18,0,0,1,1.25.78,9.18,9.18,0,0,1,.76,3.37c0,.78-1.24,1.6-2.06,1.83,0,0,.24,2.12-2.66,2.41,0,0,0,1.4-2,1.71s-2.78-.4-4.85-.09-4.94,3.33-4.94,3.33Z" style="fill: rgb(177, 102, 104); transform-origin: 295.455px 207.232px;" id="elsrf4bp97gzh" class="animable"></path><path d="M207.88,207.83c3.38-1.53,20.48-5.78,26.81-6.22l1.89,14.5-22.35,6.69Z" style="fill: #447BF7; transform-origin: 222.23px 212.205px;" id="el2lsd5sihp1h" class="animable"></path><g id="elc1yy98p6spj"><path d="M207.88,207.83c3.38-1.53,20.48-5.78,26.81-6.22l1.89,14.5-22.35,6.69Z" style="opacity: 0.1; transform-origin: 222.23px 212.205px;" class="animable" id="el3xddh53p6cv"></path></g><polygon points="229.93 358.31 238.25 357.79 238.25 347.17 229.93 347.7 229.93 358.31" style="fill: rgb(255, 168, 167); transform-origin: 234.09px 352.74px;" id="elck6s009jozi" class="animable"></polygon><path d="M251.83,353.47c.45,1.26,2.63,2.1,4.21,3.14a2.92,2.92,0,0,1,1,3.78c-.59,1.07-3.38,1.85-6.35,1.63-3.37-.25-6.9-1.73-7.51-4.66a31.28,31.28,0,0,0-2-7.12c-.58-1.49-1.6-2.84-1.36-4.4a6.38,6.38,0,0,1,2.51-3.8s6.14,12.35,7.69,12.51A1.49,1.49,0,0,0,251.83,353.47Z" style="fill: rgb(38, 50, 56); transform-origin: 248.574px 352.049px;" id="elm47jk0fo8ue" class="animable"></path><path d="M252.08,336.74s-1.16,4.24-1.55,5.64.15,8.24.87,10.09a4.5,4.5,0,0,0,1.85,2.62s2.23,1.74-.36,2.36a6.77,6.77,0,0,1-6.5-1.8c-1.71-1.81-1.92-7.41-3.07-9.61-.74-1.4-1.28-2.27-1.47-2.74s.5-.79,1.22-2.94a45.92,45.92,0,0,0,1.27-6.36Z" style="fill: rgb(255, 168, 167); transform-origin: 247.98px 345.831px;" id="eleqh3jmsd55h" class="animable"></path><path d="M225.76,243.23c-3.53,9.93-.76,26.5.43,39.34,1,11.18,2.37,20.65,2.37,20.65a39.44,39.44,0,0,0-1.94,13.67c.16,8.76,3.21,33,3.21,33a8.79,8.79,0,0,0,8.52-.54s1.2-14.69,2.39-24.86c1.25-10.63,1.66-18.34,2.75-24.58,1.35-7.78,2.17-32.24,2.17-32.24l6.11,25.47a75.57,75.57,0,0,0-4.34,12.14c-1.6,6.36-3.93,32.21-3.93,32.21a8.53,8.53,0,0,0,8,2.44s13.27-40.19,14.73-44.34c2-5.69-2-42.43-3.14-54.47Z" style="fill: #447BF7; transform-origin: 245.405px 295.931px;" id="elbu09msyq8tw" class="animable"></path><g id="el3p52g1t5e4n"><path d="M245.66,267.67l.49-6.27a17.92,17.92,0,0,0,9.63-3.6,15.67,15.67,0,0,1-7.37,5.14l-.6,5.74,2.66,19.06Z" style="opacity: 0.1; transform-origin: 250.72px 272.77px;" class="animable" id="elq9vl8usqnl"></path></g><path d="M235.73,194.56s-3,.88-5.25,1.79c3.17,7.19-.4,20.12-.4,20.12l4.69,12.47c-4,4.86-9,9.36-10.34,16.25,2.7,2.89,20.67,6.83,38.62-4.07,0,0-.67-11.07-3.14-17.93,2.7-11.5,2.83-14.48,2.06-17.39-2.16-8.19-4.57-10.06-11.09-15.21Z" style="fill: rgb(245, 245, 245); transform-origin: 243.74px 219.458px;" id="eldlstlb4myx5" class="animable"></path><path d="M238.25,354.19v-1a17.92,17.92,0,0,0,5.21,8.67c2.3,1.9,5.44,4.05,6.23,6.32s-3.7,3.72-6.68,3.68a10.85,10.85,0,0,1-7.48-3.26,52,52,0,0,1-3.77-4.72c-.88-1.12-2.92-2.28-3.4-3.62a9,9,0,0,1,.42-3.86c.34-1.32.71-2.77,1.15-2.69v.8a5.34,5.34,0,0,0,3.64.91C234.64,355.33,238.25,355,238.25,354.19Z" style="fill: rgb(38, 50, 56); transform-origin: 239.044px 362.525px;" id="el8h6rk22cb83" class="animable"></path><path d="M229.93,354.47a5.34,5.34,0,0,0,3.64.91c1.07-.05,4.68-.37,4.68-1.19v-1a17.92,17.92,0,0,0,5.21,8.67c.55.46,1.15.93,1.75,1.41,1.22,1.25.88,2.47-2,3s-6.43-1.13-8.61-3.61S229.93,354.47,229.93,354.47Z" style="fill: rgb(255, 168, 167); transform-origin: 237.903px 359.779px;" id="eluu76wzxjhda" class="animable"></path><polygon points="232 221.57 239.28 230.8 234.77 228.94 232 221.57" style="fill: rgb(224, 224, 224); transform-origin: 235.64px 226.185px;" id="ell7sec9nyef" class="animable"></polygon><path d="M253.32,159.47c2,.91,4.49,5.49,4.53,15.68,0,8.63-2.71,11.08-4.09,11.86s-4.11.71-6.76.57l.05,3.57s4.75,4.79,4.58,7.18-6.07,4.15-9.54,2.23a24.55,24.55,0,0,1-6.35-5.66l-.38-12.34s-1.51,1.68-4.2-.31c-2.23-1.65-3-4.76-1.4-6.66a3.7,3.7,0,0,1,6.05.5s4.2-.33,9.72-4A17.5,17.5,0,0,0,253.32,159.47Z" style="fill: rgb(177, 102, 104); transform-origin: 243.38px 180.423px;" id="el9omkekxqvaq" class="animable"></path><path d="M247.05,174.09a1.23,1.23,0,0,1-1,1.29,1,1,0,0,1-1.17-.94,1.22,1.22,0,0,1,1-1.29A1,1,0,0,1,247.05,174.09Z" style="fill: rgb(38, 50, 56); transform-origin: 245.965px 174.265px;" id="elmxkkndwr7ck" class="animable"></path><path d="M247.54,181.36l2.54.51a1.43,1.43,0,0,1-1.61,1.09A1.26,1.26,0,0,1,247.54,181.36Z" style="fill: rgb(154, 74, 77); transform-origin: 248.782px 182.168px;" id="el7gnbgdczmi3" class="animable"></path><path d="M255.86,170.18l-2.24-1.26a1.29,1.29,0,1,1,2.24,1.26Z" style="fill: rgb(38, 50, 56); transform-origin: 254.853px 169.171px;" id="el4zkq8dqlslv" class="animable"></path><path d="M255.42,172.78a1.23,1.23,0,0,1-1,1.3,1,1,0,0,1-1.17-.94,1.23,1.23,0,0,1,1-1.3A1,1,0,0,1,255.42,172.78Z" style="fill: rgb(38, 50, 56); transform-origin: 254.335px 172.96px;" id="el32t5z6dbbzf" class="animable"></path><polygon points="250.51 171.74 250.63 178.81 254.04 177.35 250.51 171.74" style="fill: rgb(154, 74, 77); transform-origin: 252.275px 175.275px;" id="elwhqazq1rwq" class="animable"></polygon><path d="M247,187.58c-2.79,0-8.54-1-9.49-3.18a5.15,5.15,0,0,0,2.08,2.65c1.74,1.26,7.43,2.27,7.43,2.27Z" style="fill: rgb(154, 74, 77); transform-origin: 242.265px 186.86px;" id="elwevenzylnxf" class="animable"></path><path d="M247.05,191.15l0-1.29s5-1.06,7.33-.47a13.11,13.11,0,0,1,5.48,2.22A8.65,8.65,0,0,1,262,197c-.05,2.52-2.46,3.6-5.71,1.85-1.75-.94-2.43-3-3.59-4A14.35,14.35,0,0,1,247.05,191.15Z" style="fill: rgb(255, 168, 167); transform-origin: 254.525px 194.46px;" id="elzzxbw21mni" class="animable"></path><path d="M230.48,196.35c-5.7,2.37-6.5,4.79-8.62,13.22-1.87,7.43-2.81,12.76-2.81,12.76l-7.5,15.32s13.23-2.76,14.23-5.43a217.76,217.76,0,0,0,6.66-21.68C233.51,205.49,234.41,200.21,230.48,196.35Z" style="fill: rgb(177, 102, 104); transform-origin: 222.453px 217px;" id="el7q0mmfgxqiu" class="animable"></path></g><polygon points="181.46 387.57 189.48 386.87 189.48 373.14 181.46 373.85 181.46 387.57" style="fill: rgb(255, 168, 167); transform-origin: 185.47px 380.355px;" id="el3hnk8ioj5g2" class="animable"></polygon><polygon points="209.26 370.68 217.27 370.26 217.67 355.7 209.26 356.16 209.26 370.68" style="fill: rgb(255, 168, 167); transform-origin: 213.465px 363.19px;" id="el4eoyszsv2vm" class="animable"></polygon><path d="M180.33,255.11c0,7.66,1.17,69.17,1.17,69.17-.18,2.22-2.25,6.46-1.8,14.88.61,11.44,1.42,41.58,1.42,41.58a10.45,10.45,0,0,0,8.92-.61s7.59-42.49,9-54c1.26-10.05,3.38-43.71,3.38-43.71L206.79,321a46.57,46.57,0,0,0-1,12.83c.37,5.23,2.95,32.45,2.95,32.45s3.77,2.23,9.26-.1c0,0,4.56-41.73,4.65-46.57.11-5.52-2.67-68-2.67-68Z" style="fill: rgb(55, 71, 79); transform-origin: 201.145px 316.536px;" id="elqy6ow47bba" class="animable"></path><path d="M189.48,382.91v-1.14c.76.26,2.55,6.91,5.73,9.53,2.53,2.09,6,4.45,6.85,6.94s-4.8,4.57-7.16,4.36c-2.75-.24-7.51-1.76-8.7-3.45s-1.76-4.28-2.73-5.51-3.2-2.5-3.73-4c-.29-.81.06-2.67.46-4.25s.77-3,1.26-2.95v.87a6,6,0,0,0,4,1C186.64,384.29,189.49,383.81,189.48,382.91Z" style="fill: rgb(38, 50, 56); transform-origin: 190.89px 392.192px;" id="elohy66jkfrv" class="animable"></path><path d="M217.35,367.78c.42,0,.76.53,1.68,1.45a15.59,15.59,0,0,0,4.71,3c3,1.24,8.84,3,11.49,4,1.65.6,1.57,2.6-.14,3.88s-5.82,2.46-10.77,1.79c-2.69-.37-6.2-2.55-8.42-2.22s-6.37.66-8-.33-1-3.45-.52-5.57c.51-2.3,1.14-5.89,1.89-5.8v.78c1,1.38,5.93,1.54,8.05.28Z" style="fill: rgb(38, 50, 56); transform-origin: 221.635px 374.937px;" id="el1638cdqth6" class="animable"></path><path d="M202.44,282.41A33.14,33.14,0,0,0,213.61,275s-2.16,4.23-8.56,8.54l1.37,34.63Z" style="fill: rgb(38, 50, 56); transform-origin: 208.025px 296.585px;" id="elzl0zl2zfdc7" class="animable"></path><path d="M185.46,213.62s-5.82,2.15-5.82,12l.42,18-.08,28.2c5.89,5.9,32-1.77,41-9,0,0-1-28.23-1.58-40.66-.43-8.85-3.41-14.87-11.91-14.32l-10.91,2.45Z" style="fill: #447BF7; transform-origin: 200.31px 240.862px;" id="elw13lgk0m6i" class="animable"></path><path d="M165.31,254.5c3.25-25.39,10.73-38.53,19.86-40.79l-.65,16.12s-4.87,14.25-8.68,27.34c-2.18,7.47-4.6,16.19-4.24,21.44.07.93,2.51,2.73,3.17,3.32,1.8,1.61,2.35,3.08,3.56,5,.94,1.48,1.92,1.94,1.67,2.34a2.17,2.17,0,0,1-2.8.59,12.91,12.91,0,0,1-2.6-2,14.68,14.68,0,0,0,1.31,6.87c2.13,4,1.78,6.3-4.13,5.57-3.71-.46-6.38-4-7.37-12.64a73.76,73.76,0,0,1-.18-9.8C164.59,269.4,164.66,259.58,165.31,254.5Z" style="fill: rgb(255, 168, 167); transform-origin: 174.657px 257.072px;" id="el0nytfp1hwf4" class="animable"></path><path d="M187.15,213.12c-2.39,0-8.72,1.72-12.49,8.23s-8,19.4-8.46,23.25c0,0,7.08,3.28,13.44,2.63l5.53-15.69S188.33,225.3,187.15,213.12Z" style="fill: #447BF7; transform-origin: 176.807px 230.218px;" id="elkkf4zgxoi8n" class="animable"></path><g id="elsqgh60gez5s"><path d="M187.15,213.12c-2.39,0-8.72,1.72-12.49,8.23s-8,19.4-8.46,23.25c0,0,7.08,3.28,13.44,2.63l5.53-15.69S188.33,225.3,187.15,213.12Z" style="opacity: 0.1; transform-origin: 176.807px 230.218px;" class="animable" id="els8ifjp6y7l"></path></g><g id="el4u1lpb5zr9c"><ellipse cx="206.68" cy="183.98" rx="12.47" ry="11.43" style="fill: rgb(38, 50, 56); transform-origin: 206.68px 183.98px; transform: rotate(-46.2189deg);" class="animable" id="elato2fskw9ug"></ellipse></g><path d="M187.15,192.81s1.83,8.44,2.57,9.79a3.46,3.46,0,0,0,2.25,1.62l-.13-6Z" style="fill: rgb(38, 50, 56); transform-origin: 189.56px 198.515px;" id="eluaknd7vgzm" class="animable"></path><path d="M189.45,180.29a4.59,4.59,0,0,0-3.51,1.54c-1.51,1.67-.66,6.42,1.21,11l3.45.1Z" style="fill: rgb(38, 50, 56); transform-origin: 187.882px 186.61px;" id="eltid345xjr6" class="animable"></path><path d="M191.64,192.82c-.7.47-1.68-.77-2.54-1.59a3.09,3.09,0,0,0-5,1.26c-1.42,3.1,1.23,6.81,3.42,7.31,3.77.85,4.34-1.62,4.34-1.62l.29,13.6c3.25,3.35,14.39,1.51,12.29-1.43V206.2a23.89,23.89,0,0,0,5.09-.18c2.78-.68,4.52-3,5.37-6.1,1.35-4.95,1.86-8.89.72-18.29-1.26-10.3-13.37-9.35-19.91-4.66S191.64,192.82,191.64,192.82Z" style="fill: rgb(255, 168, 167); transform-origin: 199.975px 193.583px;" id="elcyb8airbwbu" class="animable"></path><path d="M191.64,194c-.35,0-1.67-2-2.54-2.75-1.19-1,.35-10.94.35-10.94s-1.15-2.34,1.15-5.07c1.64-1.94,4.37-2.38,9-3.52,2.44-.6,6.15-1.61,8.59-2.28,2.92-.79,5.34-1.58,7.4,0a4.91,4.91,0,0,1,1.43,5.67,5.8,5.8,0,0,1-.83,1.31,5.46,5.46,0,0,1-2.1,1.63s-1.27,1.24-5.7,2.16a65,65,0,0,1-12.26.84c-1.28-.06-1.55,1.21-2.24,4.67C193.31,188.76,192.8,193.86,191.64,194Z" style="fill: rgb(38, 50, 56); transform-origin: 203.019px 181.264px;" id="elr3lh48hueq" class="animable"></path><path d="M204.41,206.2s-6.2-.71-8.37-1.67a6.31,6.31,0,0,1-3-2.7,9,9,0,0,0,1.7,3.35c1.59,1.88,9.67,2.67,9.67,2.67Z" style="fill: rgb(242, 143, 143); transform-origin: 198.725px 204.84px;" id="eliqm9q9cty4k" class="animable"></path><path d="M202.92,190.28a1.41,1.41,0,0,1-1.25,1.4,1.15,1.15,0,0,1-1.24-1.19,1.41,1.41,0,0,1,1.24-1.39A1.15,1.15,0,0,1,202.92,190.28Z" style="fill: rgb(38, 50, 56); transform-origin: 201.675px 190.39px;" id="elq22s0evpjn9" class="animable"></path><path d="M200.92,185.31l-2.66,1.7a1.69,1.69,0,0,1,.62-2.17A1.4,1.4,0,0,1,200.92,185.31Z" style="fill: rgb(38, 50, 56); transform-origin: 199.505px 185.795px;" id="el8n21ojmdfjw" class="animable"></path><path d="M203.85,198.79l2.83.81a1.61,1.61,0,0,1-1.92,1.11A1.45,1.45,0,0,1,203.85,198.79Z" style="fill: rgb(242, 143, 143); transform-origin: 205.213px 199.772px;" id="elw6fnzrch2j9" class="animable"></path><path d="M214.32,185.24l-2.43-1.66a1.54,1.54,0,0,1,2.11-.51A1.57,1.57,0,0,1,214.32,185.24Z" style="fill: rgb(38, 50, 56); transform-origin: 213.254px 184.043px;" id="elxa9vzroza2" class="animable"></path><path d="M213.25,189a1.41,1.41,0,0,1-1.24,1.39,1.14,1.14,0,0,1-1.24-1.18,1.4,1.4,0,0,1,1.24-1.4A1.15,1.15,0,0,1,213.25,189Z" style="fill: rgb(38, 50, 56); transform-origin: 212.01px 189.1px;" id="el5ms3mvkt13d" class="animable"></path><polygon points="207.11 188.56 207.25 196.09 211.71 194.72 207.11 188.56" style="fill: rgb(242, 143, 143); transform-origin: 209.41px 192.325px;" id="elgn8ag9dfl0b" class="animable"></polygon></g><path d="M196,132.57v1.14c0,1.83,1.28,2.57,2.86,1.66L229,118a6.32,6.32,0,0,0,2.86-5v-1.14c0-1.83-1.28-2.57-2.86-1.66l-30.07,17.37A6.32,6.32,0,0,0,196,132.57Z" style="fill: rgb(235, 235, 235); transform-origin: 213.93px 122.785px;" id="elkd8gcnl0s9" class="animable"></path><path d="M196,142.18c0,.87.64,1.21,1.43.75l50.83-29.35a3.08,3.08,0,0,0,1.43-2.4c0-.86-.64-1.2-1.43-.74l-50.83,29.34A3.09,3.09,0,0,0,196,142.18Z" style="fill: rgb(235, 235, 235); transform-origin: 222.845px 126.685px;" id="el4geangjhwy1" class="animable"></path><path d="M179.19,287.71l-1.79-.47c-1.71-.45-3.74-1.45-3.74-3.64a5.74,5.74,0,0,1,2.77-4.37,1.73,1.73,0,0,1,2.75,1.31,6.92,6.92,0,0,1,2.75-4.49c1.54-.89,2.78-.36,2.78,1.17,0,2.19-2,5.54-3.73,7.95Z" style="fill: #447BF7; transform-origin: 179.185px 281.664px;" id="el32azcuj4je" class="animable"></path><path d="M194,279.26a2.77,2.77,0,0,1-1.39-.36,3.58,3.58,0,0,1-1.53-3.28,10.38,10.38,0,0,1,4.7-8.13,3.15,3.15,0,0,1,5.13,3,8.18,8.18,0,0,1-.29,2.07l1.52,2.08a.44.44,0,0,1-.36.7h-2.37a9.31,9.31,0,0,1-3.19,3.28A4.5,4.5,0,0,1,194,279.26Zm4-11.56a3.58,3.58,0,0,0-1.77.55,9.42,9.42,0,0,0-4.26,7.37,2.3,2.3,0,0,0,3.82,2.2,8.64,8.64,0,0,0,3-3.18.46.46,0,0,1,.38-.22H201l-1.09-1.49a.4.4,0,0,1-.12-.43,7.43,7.43,0,0,0,.32-2.05,2.73,2.73,0,0,0-1.09-2.51A1.89,1.89,0,0,0,198,267.7Z" style="fill: rgb(69, 90, 100); transform-origin: 196.645px 273.001px;" id="elvco6s02y94b" class="animable"></path><path d="M209.45,270.89h-.06a.44.44,0,0,1-.38-.41l-.39-6.34-3.76-1a.44.44,0,0,1-.1-.81l8.94-5.16a.44.44,0,0,1,.64.52l-4.47,12.92A.44.44,0,0,1,209.45,270.89Zm-3.33-8.34,3,.83a.44.44,0,0,1,.32.39l.28,4.46,3.36-9.72Z" style="fill: rgb(69, 90, 100); transform-origin: 209.448px 264px;" id="elulfmt8ryofe" class="animable"></path><path d="M209,264.24a.46.46,0,0,1-.27-.09.45.45,0,0,1-.08-.62l4.89-6.26a.43.43,0,0,1,.62-.08.44.44,0,0,1,.07.62l-4.88,6.26A.46.46,0,0,1,209,264.24Z" style="fill: rgb(69, 90, 100); transform-origin: 211.444px 260.666px;" id="eld2pmbo4q3jn" class="animable"></path><path d="M255.42,247.85h-.1a.46.46,0,0,1-.35-.43V237.07a.46.46,0,0,1,.22-.38l6.54-3.79a.43.43,0,0,1,.44,0,.43.43,0,0,1,.22.38v10.33a.43.43,0,0,1-.27.41.45.45,0,0,1-.48-.09l-2.84-2.83-3,6.49A.46.46,0,0,1,255.42,247.85Zm.44-10.52v8.07l2.41-5.24a.43.43,0,0,1,.32-.25.44.44,0,0,1,.39.12l2.53,2.52v-8.5Z" style="fill: rgb(69, 90, 100); transform-origin: 258.68px 240.345px;" id="el78hmi9h8gt8" class="animable"></path><path d="M176.9,301.59a2.13,2.13,0,0,0,.33-.69,2.05,2.05,0,0,0,.08-.5.66.66,0,0,0-.22-.57c-.14-.1-.38-.06-.72.13a1.85,1.85,0,0,0-.69.67,2.89,2.89,0,0,0-.32.88.69.69,0,0,1-.1.25.6.6,0,0,1-.16.16l-.68.39c-.07,0-.12.05-.17,0s-.07-.07-.07-.15a3.9,3.9,0,0,1,.2-1,5.08,5.08,0,0,1,.47-1,4.63,4.63,0,0,1,.67-.86,3.7,3.7,0,0,1,.84-.66,2.19,2.19,0,0,1,.95-.34,1,1,0,0,1,.66.15,1,1,0,0,1,.38.5,1.8,1.8,0,0,1,.13.71,4,4,0,0,1,0,.49,2.94,2.94,0,0,1-.12.52,5.17,5.17,0,0,1-.28.63,8.85,8.85,0,0,1-.48.8L176,304.8l2.4-1.39a.14.14,0,0,1,.24.13v.71a.51.51,0,0,1-.07.23.49.49,0,0,1-.17.18l-4,2.33a.16.16,0,0,1-.16,0,.16.16,0,0,1-.07-.15v-.61a.74.74,0,0,1,.08-.35l.15-.26Z" style="fill: rgb(69, 90, 100); transform-origin: 176.407px 302.652px;" id="el2cfpx7yb7z8" class="animable"></path><path d="M183.62,294.63a.14.14,0,0,1,.24.13v.71a.55.55,0,0,1-.07.24,2.68,2.68,0,0,1-.12.24l-1.27,2.27a2.12,2.12,0,0,1,.71-.18.86.86,0,0,1,.54.1.8.8,0,0,1,.34.4,1.64,1.64,0,0,1,.13.71,3.06,3.06,0,0,1-.18,1,4.25,4.25,0,0,1-.5,1,5.44,5.44,0,0,1-.74.86,5.6,5.6,0,0,1-.93.69,3.88,3.88,0,0,1-1.05.44,1.57,1.57,0,0,1-.75,0,.72.72,0,0,1-.45-.32,1,1,0,0,1-.18-.55.35.35,0,0,1,.06-.23.46.46,0,0,1,.17-.17l.68-.4a.17.17,0,0,1,.15,0l.11.12a.5.5,0,0,0,.14.15.7.7,0,0,0,.23.06,1.13,1.13,0,0,0,.36-.08,3.38,3.38,0,0,0,.53-.25,2.93,2.93,0,0,0,.85-.74,1.44,1.44,0,0,0,.33-.88c0-.3-.11-.46-.33-.46a1.64,1.64,0,0,0-.85.3l-.72.41a.16.16,0,0,1-.16,0,.16.16,0,0,1-.07-.15v-.71a.61.61,0,0,1,.06-.25l.13-.23,1.21-2.17-2.39,1.38a.17.17,0,0,1-.17,0s-.06-.07-.06-.15v-.71a.53.53,0,0,1,.06-.23.46.46,0,0,1,.17-.17Z" style="fill: rgb(69, 90, 100); transform-origin: 181.73px 298.934px;" id="el3iljp5fw8om" class="animable"></path><path d="M187.92,299.15a.17.17,0,0,1-.17,0,.16.16,0,0,1-.07-.15V297.8L185,299.35a.18.18,0,0,1-.17,0,.18.18,0,0,1-.06-.15v-.71a.66.66,0,0,1,0-.28l.13-.3,2.66-5.35a1,1,0,0,1,.35-.46l.66-.38a.16.16,0,0,1,.16,0c.05,0,.07.07.07.15v4l.75-.43a.16.16,0,0,1,.16,0,.16.16,0,0,1,.07.15v.71a.41.41,0,0,1-.07.23.47.47,0,0,1-.16.18l-.75.43v1.21a.43.43,0,0,1-.07.23.38.38,0,0,1-.16.17Zm-.24-2.6v-2.14l-1.48,3Z" style="fill: rgb(69, 90, 100); transform-origin: 187.268px 295.535px;" id="el0p8hp54lrd1d" class="animable"></path><path d="M193.81,295.48a.55.55,0,0,1-.07.23.4.4,0,0,1-.17.17l-.66.38a.14.14,0,0,1-.23-.13v-6.56a.41.41,0,0,1,.07-.23.57.57,0,0,1,.16-.18l.66-.38a.17.17,0,0,1,.17,0,.16.16,0,0,1,.07.15Z" style="fill: rgb(69, 90, 100); transform-origin: 193.244px 292.526px;" id="elerww05vl33v" class="animable"></path><path d="M195.94,287.42a.14.14,0,0,1,.23.13v.78a.41.41,0,0,1-.07.23.57.57,0,0,1-.16.18l-.75.43a.16.16,0,0,1-.16,0c-.05,0-.07-.07-.07-.15v-.78A.43.43,0,0,1,195,288a.38.38,0,0,1,.16-.17Zm.19,6.72a.55.55,0,0,1-.07.23.4.4,0,0,1-.17.17l-.66.38a.14.14,0,0,1-.23-.13v-4.66a.41.41,0,0,1,.07-.23.57.57,0,0,1,.16-.18l.66-.38a.17.17,0,0,1,.17,0,.16.16,0,0,1,.07.15Z" style="fill: rgb(69, 90, 100); transform-origin: 195.564px 291.17px;" id="eljh3flb4b72o" class="animable"></path><path d="M198.45,291.08v1.72a.55.55,0,0,1-.07.23.4.4,0,0,1-.17.17l-.65.38c-.07,0-.12.05-.17,0a.18.18,0,0,1-.07-.15v-6.56a.51.51,0,0,1,.07-.23.49.49,0,0,1,.17-.18l.65-.38a.17.17,0,0,1,.17,0,.16.16,0,0,1,.07.15v3.15l1.44-2.19L200,287a.49.49,0,0,1,.2-.18l.89-.51a.12.12,0,0,1,.14,0,.16.16,0,0,1,.06.14.34.34,0,0,1,0,.1.56.56,0,0,1-.08.15l-2,3.05,2.21,1.17a.22.22,0,0,1,.07.06.19.19,0,0,1,0,.08.42.42,0,0,1-.06.21.41.41,0,0,1-.14.15l-.84.49a.46.46,0,0,1-.22.07.39.39,0,0,1-.14,0Z" style="fill: rgb(69, 90, 100); transform-origin: 199.407px 289.83px;" id="eljjv9y2q3yto" class="animable"></path><path d="M201.67,288.61a4.46,4.46,0,0,1,.15-1.14,4.79,4.79,0,0,1,.42-1.11,5,5,0,0,1,.67-1,3.76,3.76,0,0,1,.88-.72,2,2,0,0,1,.88-.3,1.12,1.12,0,0,1,.67.16,1.18,1.18,0,0,1,.43.56,2.44,2.44,0,0,1,.15.89v.45a.41.41,0,0,1-.07.23.47.47,0,0,1-.16.18l-2.89,1.67a.64.64,0,0,0,.08.36.36.36,0,0,0,.22.16.58.58,0,0,0,.32,0,1.3,1.3,0,0,0,.37-.16,1.86,1.86,0,0,0,.45-.32,2.14,2.14,0,0,0,.29-.33,1.45,1.45,0,0,1,.15-.2.59.59,0,0,1,.17-.13l.69-.4a.17.17,0,0,1,.17,0s.07.07.06.15a1.48,1.48,0,0,1-.13.44,3.23,3.23,0,0,1-.38.64,4.42,4.42,0,0,1-.62.72,4,4,0,0,1-.85.64,2.08,2.08,0,0,1-.88.31,1,1,0,0,1-.67-.16,1.26,1.26,0,0,1-.42-.61A3,3,0,0,1,201.67,288.61Zm2.12-2.73a2.12,2.12,0,0,0-.43.33,2.2,2.2,0,0,0-.3.4,1.76,1.76,0,0,0-.18.4,1.46,1.46,0,0,0-.08.37l1.95-1.13a1.27,1.27,0,0,0-.06-.28.42.42,0,0,0-.16-.21.37.37,0,0,0-.28-.05A1.32,1.32,0,0,0,203.79,285.88Z" style="fill: rgb(69, 90, 100); transform-origin: 203.795px 287.352px;" id="elb8hc3q7q2vk" class="animable"></path><path d="M209.32,285.3c0-.07,0-.12-.06-.14s-.11,0-.22,0l-.4.11-.64.21a2.14,2.14,0,0,1-.63.12.76.76,0,0,1-.4-.12.59.59,0,0,1-.22-.33,2,2,0,0,1-.06-.52,2.1,2.1,0,0,1,.12-.66,4,4,0,0,1,.35-.72,4.46,4.46,0,0,1,.56-.69,3.36,3.36,0,0,1,.76-.57,2.92,2.92,0,0,1,.75-.33,1.46,1.46,0,0,1,.57,0,.6.6,0,0,1,.37.21.68.68,0,0,1,.14.39.32.32,0,0,1-.06.22.43.43,0,0,1-.17.18l-.67.39c-.08.05-.15.07-.19.05l-.15,0a.44.44,0,0,0-.2,0,1.16,1.16,0,0,0-.39.17,2.07,2.07,0,0,0-.46.35.6.6,0,0,0-.2.44.21.21,0,0,0,.05.16s.09,0,.18,0a2.12,2.12,0,0,0,.37-.09c.16,0,.37-.11.62-.2a1.28,1.28,0,0,1,1.09,0,.94.94,0,0,1,.31.82,1.88,1.88,0,0,1-.13.66,3.35,3.35,0,0,1-.37.73,4.43,4.43,0,0,1-.61.71,4.05,4.05,0,0,1-.81.6,2.88,2.88,0,0,1-.81.34,1.2,1.2,0,0,1-.59,0,.67.67,0,0,1-.38-.23.74.74,0,0,1-.13-.41.35.35,0,0,1,.06-.23.59.59,0,0,1,.17-.18l.67-.38c.08,0,.15-.07.19,0l.15.08a.39.39,0,0,0,.23,0,1.2,1.2,0,0,0,.44-.19l.27-.17a2.76,2.76,0,0,0,.25-.21,1.41,1.41,0,0,0,.2-.24A.43.43,0,0,0,209.32,285.3Z" style="fill: rgb(69, 90, 100); transform-origin: 208.528px 284.729px;" id="elxnj35ubqane" class="animable"></path><path d="M173.66,316.53c0,.87.64,1.2,1.43.75l50.83-29.35a3.09,3.09,0,0,0,1.43-2.4c0-.87-.64-1.2-1.43-.74l-50.83,29.34A3.09,3.09,0,0,0,173.66,316.53Z" style="fill: rgb(235, 235, 235); transform-origin: 200.505px 301.032px;" id="eliaf49aq56m" class="animable"></path><path d="M181.71,135.47c4.44-2.57,8-.48,8,4.65s-3.61,11.37-8,13.94-8.05.49-8.05-4.65A17.79,17.79,0,0,1,181.71,135.47Z" style="fill: rgb(69, 90, 100); transform-origin: 181.685px 144.766px;" id="elhdmwq7t2s2f" class="animable"></path><path d="M181.65,139.51c1.44-.83,2.61-.16,2.61,1.51a5.78,5.78,0,0,1-2.61,4.52c-1.44.83-2.61.16-2.61-1.51A5.78,5.78,0,0,1,181.65,139.51Z" style="fill: #447BF7; transform-origin: 181.65px 142.525px;" id="el2gu2fmth69" class="animable"></path><path d="M186.8,148.39c0-2.74-1.92-3.84-4.29-2.48l-1.49.86a9.5,9.5,0,0,0-4.29,7.43v.74a6.21,6.21,0,0,0,5-.88,15.84,15.84,0,0,0,5.09-5Z" style="fill: #447BF7; transform-origin: 181.775px 150.228px;" id="el1jbsy7bvhlj" class="animable"></path></g></g><g id="freepik--Characters--inject-8" class="animable" style="transform-origin: 365.326px 320.603px;"><g id="freepik--characters--inject-8" class="animable" style="transform-origin: 365.326px 320.603px;"><g id="freepik--character--inject-8" class="animable" style="transform-origin: 374.89px 310.652px;"><path d="M370.71,257H354.89a11.55,11.55,0,0,1-11.56-11.55v-2.81a13.73,13.73,0,0,1,13.35-14.07h0a13.71,13.71,0,0,1,14.07,13.32Z" style="fill: rgb(38, 50, 56); transform-origin: 357.038px 242.783px;" id="ellec3q3g4or" class="animable"></path><path d="M345.76,235.09l-3.13-1.68a1.74,1.74,0,0,1,2.37-.78A1.85,1.85,0,0,1,345.76,235.09Z" style="fill: rgb(38, 50, 56); transform-origin: 344.295px 233.761px;" id="elugzjcso1mg" class="animable"></path><path d="M345.81,234.18l-1-3.41A1.72,1.72,0,0,1,347,231.9,1.87,1.87,0,0,1,345.81,234.18Z" style="fill: rgb(38, 50, 56); transform-origin: 345.941px 232.431px;" id="el6fc319mh6p" class="animable"></path><path d="M320.81,244.7,317.68,243a1.72,1.72,0,0,1,2.36-.78A1.86,1.86,0,0,1,320.81,244.7Z" style="fill: rgb(38, 50, 56); transform-origin: 319.347px 243.36px;" id="el2kg443pocor" class="animable"></path><path d="M363.46,257.57c2-.22,4.73-1.52,7.6,3.83s8.42,16.81,8.42,16.81l12.3-9.1,3.47,3.78s-12.39,12.1-14.2,13.91c-1.44,1.43-3.16,1.62-5-.76-2.2-2.79-9.14-14.07-9.14-14.07Z" style="fill: rgb(177, 102, 104); transform-origin: 379.355px 272.565px;" id="elb3k8c7yqlok" class="animable"></path><path d="M390.66,273.08l34.24-19.16.7,2-33.79,18.9C390,275.81,389.21,273.81,390.66,273.08Z" style="fill: #447BF7; transform-origin: 407.754px 264.505px;" id="elcoiwpyf3q8" class="animable"></path><g id="eloybltzbspp"><g style="opacity: 0.1; transform-origin: 407.754px 264.505px;" class="animable" id="el1zdl8q8igbi"><path d="M390.66,273.08l34.24-19.16.7,2-33.79,18.9C390,275.81,389.21,273.81,390.66,273.08Z" id="el3phgpgm9px2" class="animable" style="transform-origin: 407.754px 264.505px;"></path></g></g><path d="M431.07,242,425,245.56a.69.69,0,0,0-.31.54v14.51c0,.2.14.29.31.19l6.12-3.54a.69.69,0,0,0,.31-.54V242.2C431.38,242,431.24,241.92,431.07,242Z" style="fill: rgb(55, 71, 79); transform-origin: 428.06px 251.405px;" id="eljscavpv84yg" class="animable"></path><path d="M425,245.56l6.12-3.54a.19.19,0,0,1,.31.13.75.75,0,0,0-.31-.49l-.26-.14a.68.68,0,0,0-.62,0l-6.12,3.53a.54.54,0,0,0-.22.23l.88.51A.54.54,0,0,1,425,245.56Z" style="fill: rgb(69, 90, 100); transform-origin: 427.665px 243.618px;" id="elq8n01g6dcke" class="animable"></path><path d="M423.76,260.11a.69.69,0,0,0,.31.54l.25.15a.73.73,0,0,0,.58,0c-.15.06-.26,0-.26-.21V246.1a.61.61,0,0,1,.09-.31l-.88-.51a.61.61,0,0,0-.09.31Z" style="fill: rgb(38, 50, 56); transform-origin: 424.33px 253.07px;" id="el8plgeg8zfvq" class="animable"></path><path d="M429.46,250.59l1.92-1.11c.4-.23.72-.1.72.29a1.44,1.44,0,0,1-.72,1.11L429.46,252C429.07,252.22,429.06,250.82,429.46,250.59Z" style="fill: #447BF7; transform-origin: 430.632px 250.695px;" id="eleu055kl0sgl" class="animable"></path><path d="M429.46,253.24l1.92-1.11c.4-.23.72-.1.72.29a1.44,1.44,0,0,1-.72,1.11l-1.92,1.11C429.07,254.87,429.06,253.47,429.46,253.24Z" style="fill: #447BF7; transform-origin: 430.632px 253.341px;" id="elugt8ju2otgq" class="animable"></path><path d="M426,245.74a1.19,1.19,0,0,0-.51.93v1.1c0,.35.23.5.51.33a1.16,1.16,0,0,0,.51-.92v-1.1C426.52,245.73,426.29,245.58,426,245.74Z" style="fill: rgb(38, 50, 56); transform-origin: 426px 246.923px;" id="elp92601595us" class="animable"></path><path d="M426,246.16a.49.49,0,0,0-.22.38c0,.14.1.2.22.13a.49.49,0,0,0,.22-.38C426.23,246.15,426.13,246.09,426,246.16Z" style="fill: rgb(245, 245, 245); transform-origin: 426px 246.415px;" id="elbbqbn02lef9" class="animable"></path><path d="M426,247a.49.49,0,0,0-.22.38c0,.14.1.19.22.12a.49.49,0,0,0,.22-.38C426.23,247,426.13,247,426,247Z" style="fill: rgb(245, 245, 245); transform-origin: 426px 247.266px;" id="elz3jg68qynp" class="animable"></path><path d="M431.74,249.18a.73.73,0,0,1,.36.6v2.9a.85.85,0,0,1-.35.63l-.37.22V249Z" style="fill: #447BF7; transform-origin: 431.74px 251.265px;" id="eldhfsrth4pbk" class="animable"></path><path d="M388.72,271.38c1.39-1.3,3.72-3.79,5-4.3s5.54-.56,6.49-.95,1.17.85.21,1.48l-8.86,4.95Z" style="fill: rgb(177, 102, 104); transform-origin: 394.88px 269.308px;" id="elyc92btwvpmb" class="animable"></path><path d="M392.71,274.31l2.18-1.22a4.39,4.39,0,0,1-1.05-1,1.79,1.79,0,0,1,0-1.42,2.13,2.13,0,0,1,1.05-1,8.78,8.78,0,0,1,3.58-1.32,9.68,9.68,0,0,1,3,.08,1.81,1.81,0,0,1,.94.66,7.53,7.53,0,0,1,.57,2.57c0,.59-.94,1.12-1.55,1.24,0,0,.18,1.6-2,1.63,0,0,0,1-1.49,1.15s-2.08-.48-3.63-.39-3.7,2.17-3.7,2.17Z" style="fill: rgb(177, 102, 104); transform-origin: 396.795px 272.865px;" id="elbf8vxdp66jf" class="animable"></path><path d="M331.27,267.65c2.53-.92,15.33-3,20.07-2.9l1.41,11L336,279.28Z" style="fill: #447BF7; transform-origin: 342.01px 272.013px;" id="elu198zpkgyum" class="animable"></path><g id="elkasemqfgke"><path d="M331.27,267.65c2.53-.92,15.33-3,20.07-2.9l1.41,11L336,279.28Z" style="opacity: 0.1; transform-origin: 342.01px 272.013px;" class="animable" id="elpjcjfiflhr"></path></g><polygon points="347.77 381.74 354 381.89 354 373.94 347.77 373.79 347.77 381.74" style="fill: rgb(255, 168, 167); transform-origin: 350.885px 377.84px;" id="eljzta4pom1ra" class="animable"></polygon><path d="M364.17,379.55c.33,1,2,1.74,3.15,2.63a2.3,2.3,0,0,1,.75,2.89c-.44.76-2.53,1.16-4.76.8-2.51-.41-5.16-1.75-5.61-4a25.19,25.19,0,0,0-1.49-5.46c-.43-1.15-1.2-2.23-1-3.38a4.22,4.22,0,0,1,1.89-2.68s4.59,9.64,5.75,9.86S364.17,379.55,364.17,379.55Z" style="fill: rgb(38, 50, 56); transform-origin: 361.739px 378.177px;" id="elxxtecmsfpo" class="animable"></path><path d="M364.36,367s-.87,3.1-1.17,4.12a24.69,24.69,0,0,0,.66,7.61,3.85,3.85,0,0,0,1.38,2.08s1.67,1.45-.27,1.74a5.4,5.4,0,0,1-4.86-1.77c-1.29-1.46-1.44-5.67-2.3-7.39-.56-1.1-1-1.79-1.11-2.15s.39-.56.92-2.12a32.75,32.75,0,0,0,.95-4.68Z" style="fill: rgb(255, 168, 167); transform-origin: 361.286px 373.525px;" id="el2f9y2699a79" class="animable"></path><path d="M344.66,295.33c-2.65,7.19-.58,19.78.31,29.47.78,8.43,1.78,15.61,1.78,15.61a28.36,28.36,0,0,0-1.45,10.1c.12,6.57,2.4,24.91,2.4,24.91a6.63,6.63,0,0,0,6.38.16s.9-10.92,1.79-18.46c.93-7.87,1.24-13.61,2.06-18.21,1-5.73,1.62-24,1.62-24l4.57,19.47a51.5,51.5,0,0,0-3.24,8.79c-1.21,4.67-2.95,23.86-2.95,23.86a7,7,0,0,0,6,2.35s9.94-29.22,11-32.22c1.5-4.13-1.52-31.9-2.35-41Z" style="fill: #447BF7; transform-origin: 359.35px 335.825px;" id="els6wfqoc0wga" class="animable"></path><g id="elukflj8x1kq"><path d="M359.55,314.92l.37-4.66a12.52,12.52,0,0,0,7.2-2.06,10.39,10.39,0,0,1-5.51,3.36l-.45,4.26,2,14.43Z" style="opacity: 0.1; transform-origin: 363.335px 319.225px;" class="animable" id="elvhoz13tyzn"></path></g><path d="M352.12,259.54s-2.24.47-3.94,1c2.38,5.59-.29,15-.29,15l3.51,9.65c-3,3.37-4.81,5.21-6.73,10.08,2,2.34,14.46,7.87,27.9.88,0,0-.51-8.32-2.35-13.62,2-8.43,2.11-10.65,1.54-12.88-1.62-6.28-3.42-7.83-8.3-12.11Z" style="fill: rgb(245, 245, 245); transform-origin: 358.62px 278.552px;" id="elrhdvdkgsni" class="animable"></path><path d="M354,379.2v-.78a15.2,15.2,0,0,0,3.9,6.83c1.72,1.57,4.07,3.38,4.67,5.14s-2.78,2.54-5,2.31a8.92,8.92,0,0,1-5.6-2.93,40.93,40.93,0,0,1-2.83-3.78c-.66-.89-2.18-1.89-2.54-2.93a6.64,6.64,0,0,1,.32-2.86c.25-1,.52-2,.85-1.94v.6a4.33,4.33,0,0,0,2.73.92C351.3,379.81,354,379.81,354,379.2Z" style="fill: rgb(38, 50, 56); transform-origin: 354.601px 385.498px;" id="elbuwbo4c2vt6" class="animable"></path><path d="M347.77,378.86a4.33,4.33,0,0,0,2.73.92c.8,0,3.51,0,3.5-.58v-.78a15.2,15.2,0,0,0,3.9,6.83c.41.38.86.77,1.31,1.17.92,1,.66,1.91-1.49,2.09s-4.82-1.27-6.45-3.27A35.3,35.3,0,0,1,347.77,378.86Z" style="fill: rgb(255, 168, 167); transform-origin: 353.741px 383.473px;" id="elaplsmdj82fr" class="animable"></path><polygon points="349.32 279.52 354.77 286.9 351.4 285.22 349.32 279.52" style="fill: rgb(224, 224, 224); transform-origin: 352.045px 283.21px;" id="elehmyc2vi27v" class="animable"></polygon><path d="M365.29,234.43c1.47.81,3.35,4.4,3.38,12,0,6.47-2,8.12-3.06,8.61s-3.08.26-5.06,0l0,2.68s3.55,3.89,3.43,5.67-4.55,2.71-7.15,1a21,21,0,0,1-4.74-4.65l-.29-9.27s-1.13,1.16-3.15-.5c-1.66-1.38-2.27-3.76-1-5.08a2.83,2.83,0,0,1,4.53.78,15.71,15.71,0,0,0,7.27-2.39A11.8,11.8,0,0,0,365.29,234.43Z" style="fill: rgb(177, 102, 104); transform-origin: 357.82px 249.862px;" id="elce1ij1whz3l" class="animable"></path><path d="M360.62,245.25a.83.83,0,0,1-.75.9.84.84,0,0,1-.13-1.68A.84.84,0,0,1,360.62,245.25Z" style="fill: rgb(38, 50, 56); transform-origin: 359.793px 245.311px;" id="eld7i9xur2gw7" class="animable"></path><path d="M361,250.72l1.91.55a1,1,0,0,1-1.21.71A1,1,0,0,1,361,250.72Z" style="fill: rgb(154, 74, 77); transform-origin: 361.933px 251.365px;" id="el3117e1q9eik" class="animable"></path><path d="M367.21,242.57l-1.67-1.09a1,1,0,0,1,1.36-.32A1,1,0,0,1,367.21,242.57Z" style="fill: rgb(38, 50, 56); transform-origin: 366.46px 241.793px;" id="elhjrwq3ktvkl" class="animable"></path><path d="M366.89,244.49a.82.82,0,1,1-1.63.12.83.83,0,0,1,.75-.9A.84.84,0,0,1,366.89,244.49Z" style="fill: rgb(38, 50, 56); transform-origin: 366.078px 244.573px;" id="eltkukgsej84p" class="animable"></path><polygon points="363.21 243.72 363.3 249.02 365.86 248.15 363.21 243.72" style="fill: rgb(154, 74, 77); transform-origin: 364.535px 246.37px;" id="el9q1ugpf9wmi" class="animable"></polygon><path d="M360.55,255.06c-2.08-.22-6.39-1.33-7.1-3a4.38,4.38,0,0,0,1.55,2.11c1.31,1.06,5.57,2.19,5.57,2.19Z" style="fill: rgb(154, 74, 77); transform-origin: 357.01px 254.21px;" id="ell7hq7wygvyj" class="animable"></path><path d="M360.59,257.74v-1s3.71-.47,5.48.12a10.93,10.93,0,0,1,4.11,2,7.12,7.12,0,0,1,1.59,4.19c0,1.89-1.84,2.53-4.28,1-1.31-.82-1.81-2.41-2.68-3.23A12.17,12.17,0,0,1,360.59,257.74Z" style="fill: rgb(255, 168, 167); transform-origin: 366.18px 260.734px;" id="eljfqtwof51tm" class="animable"></path><path d="M348.18,260.54c-4.26,1.4-4.86,3.16-6.44,9.33-1.4,5.44-2.11,9.37-2.11,9.37l-5.61,11s9.9-1.21,10.65-3.14a150.63,150.63,0,0,0,5-15.79C350.45,267.58,351.13,263.69,348.18,260.54Z" style="fill: rgb(177, 102, 104); transform-origin: 342.18px 275.39px;" id="el4a8gngrwm2j" class="animable"></path></g><g id="elol74yqxf48"><rect x="311.49" y="390.19" width="6" height="10.27" style="fill: rgb(255, 168, 167); transform-origin: 314.49px 395.325px; transform: rotate(180deg);" class="animable" id="elxn6pxhft9kr"></rect></g><polygon points="332.3 389.64 338.3 389.85 338.6 378.98 332.3 378.77 332.3 389.64" style="fill: rgb(255, 168, 167); transform-origin: 335.45px 384.31px;" id="elzj9ztdfgtx" class="animable"></polygon><path d="M310.65,301.24c0,5.73.88,51.85.88,51.85-.14,1.65-1.69,4.69-1.35,11,.45,8.61,1.06,31.22,1.06,31.22a7.89,7.89,0,0,0,6.68.13s5.68-31.32,6.75-39.84c.94-7.44,2.53-32.5,2.53-32.5l3.25,29.13a34.34,34.34,0,0,0-.74,9.54c.28,3.95,2.21,24.48,2.21,24.48a8.19,8.19,0,0,0,6.93.53s3.41-30.93,3.48-34.55c.08-4.12-2-51.07-2-51.07Z" style="fill: rgb(55, 71, 79); transform-origin: 326.232px 348.639px;" id="elh5gf6qq2h1q" class="animable"></path><path d="M317.5,397.5v-.86c.57.25,1.9,5.34,4.28,7.51,1.9,1.73,4.48,3.73,5.14,5.65s-3.6,3.11-5.37,2.79c-2.05-.36-5.61-1.81-6.51-3.15s-1.31-3.32-2-4.3-2.4-2.08-2.79-3.22a7.24,7.24,0,0,1,.34-3.15c.28-1.06.58-2.23.94-2.13v.66a4.76,4.76,0,0,0,3,1C315.37,398.34,317.5,398.17,317.5,397.5Z" style="fill: rgb(38, 50, 56); transform-origin: 318.596px 404.638px;" id="el6w900jdfkwd" class="animable"></path><path d="M338.36,388c.31,0,.57.45,1.26,1.19a12.92,12.92,0,0,0,3.53,2.54c2.24,1.13,6.61,2.86,8.59,3.75,1.23.55,1.18,2-.1,2.9s-4.36,1.46-8.06.63c-2-.45-4.64-2.31-6.3-2.21s-4.78.07-6-.77-.74-2.65-.39-4.21.85-4.33,1.41-4.21v.58c.72,1.09,4.45,1.54,6,.73Z" style="fill: rgb(38, 50, 56); transform-origin: 341.564px 393.511px;" id="elkovdyzx7x4o" class="animable"></path><path d="M327.2,323.12a22.22,22.22,0,0,0,8.36-4.79s-1.61,3-6.41,5.83l1,26Z" style="fill: rgb(38, 50, 56); transform-origin: 331.38px 334.245px;" id="elufimuetphl" class="animable"></path><path d="M314.49,270.52s-4.36,1.23-4.36,8.63l.32,13.52-.07,17.42c4.42,4.8,24,4.45,30.68-.38,0,0-.73-21.19-1.18-30.54-.32-6.65-2.55-11.36-8.92-11.5l-8.17,1.12Z" style="fill: #447BF7; transform-origin: 325.595px 290.593px;" id="elbrqk7izud9q" class="animable"></path><path d="M299.41,299.8c2.43-18.79,8-28.14,14.86-29.24l-.49,12a103,103,0,0,0-6.49,19.9c-.9,4.62-1.94,12.67-1.67,16.62a2.87,2.87,0,0,0,.87,1.84,16.52,16.52,0,0,1,2.66,3.95c.71,1.16,1.44,1.58,1.25,1.86a1.55,1.55,0,0,1-2.09.26,11.32,11.32,0,0,1-1.95-1.69,11.48,11.48,0,0,0,1,5.23c1.6,3.16,1.33,4.83-3.09,3.9-2.77-.58-4.77-3.39-5.52-9.94a54.67,54.67,0,0,1-.13-7.35C298.87,310.9,298.92,303.56,299.41,299.8Z" style="fill: rgb(255, 168, 167); transform-origin: 306.411px 302.623px;" id="el0ow9i4fuc69p" class="animable"></path><path d="M315.76,270.25a10.9,10.9,0,0,0-9.36,5.35c-2.82,4.62-6,14-6.33,16.85,0,0,5.3,2.92,10.06,2.85l4.14-11.38S316.64,279.45,315.76,270.25Z" style="fill: #447BF7; transform-origin: 308.013px 282.776px;" id="el0v5q7jxqvi5m" class="animable"></path><g id="elgaa6oaeeww"><path d="M315.76,270.25a10.9,10.9,0,0,0-9.36,5.35c-2.82,4.62-6,14-6.33,16.85,0,0,5.3,2.92,10.06,2.85l4.14-11.38S316.64,279.45,315.76,270.25Z" style="opacity: 0.1; transform-origin: 308.013px 282.776px;" class="animable" id="elzi0enyc5x6j"></path></g><g id="elnyh7vtem27"><circle cx="330.37" cy="249.72" r="8.93" style="fill: rgb(38, 50, 56); transform-origin: 330.37px 249.72px; transform: rotate(-9.22deg);" class="animable" id="eltzmyowxjd4"></circle></g><path d="M315.76,255.06a73,73,0,0,0,1.92,7.49,2.91,2.91,0,0,0,1.68,1.36l-.1-4.53Z" style="fill: rgb(38, 50, 56); transform-origin: 317.56px 259.485px;" id="el82inmuaoxkt" class="animable"></path><path d="M317.48,245.83a3.18,3.18,0,0,0-2.63.93c-1.13,1.15-.5,4.76.91,8.3l2.58.29Z" style="fill: rgb(38, 50, 56); transform-origin: 316.304px 250.58px;" id="elej0aabbwr6c" class="animable"></path><path d="M319.11,255.35c-.52.31-1.25-.68-1.89-1.35a2.24,2.24,0,0,0-3.76.61c-1.06,2.23.91,5.18,2.55,5.7,2.83.88,3.25-.93,3.25-.93l.22,10.2c2.44,2.72,10.77,2.07,9.2-.27v-3.1a18.16,18.16,0,0,0,3.81.19c2.08-.32,3.39-2,4-4.21,1-3.62,1.4-6.53.54-13.64-.94-7.8-10-7.88-14.9-4.8S319.11,255.35,319.11,255.35Z" style="fill: rgb(255, 168, 167); transform-origin: 325.331px 256.608px;" id="elop1kq98fjvn" class="animable"></path><path d="M319.11,256.23c-.26,0-1.25-1.64-1.89-2.23-.9-.81.26-8.17.26-8.17a3.48,3.48,0,0,1,.86-3.72c1.22-1.34,3.26-1.49,6.75-2,1.83-.29,4.61-.8,6.44-1.14,2.18-.41,4-.84,5.53.5a3.87,3.87,0,0,1,1.07,4.34,3.38,3.38,0,0,1-.62.92,3.58,3.58,0,0,1-1.57,1.09s-.95.84-4.26,1.24a48.18,48.18,0,0,1-9.18-.17c-1-.13-1.16.8-1.68,3.34C320.36,252.43,320,256.21,319.11,256.23Z" style="fill: rgb(38, 50, 56); transform-origin: 327.638px 247.397px;" id="elm7x84yq7pq" class="animable"></path><path d="M328.67,266.21a35.82,35.82,0,0,1-6.26-1.8,5.41,5.41,0,0,1-2.25-2.22,7.39,7.39,0,0,0,1.28,2.62c1.19,1.51,7.23,2.63,7.23,2.63Z" style="fill: rgb(242, 143, 143); transform-origin: 324.415px 264.815px;" id="elwfvc2sf2tk" class="animable"></path><path d="M327.56,254.19a.93.93,0,1,1-1.86,0,.94.94,0,0,1,.93-1A1,1,0,0,1,327.56,254.19Z" style="fill: rgb(38, 50, 56); transform-origin: 326.629px 254.158px;" id="elrx691f65q3e" class="animable"></path><path d="M326.06,250.34l-2,1.1a1.19,1.19,0,0,1,.47-1.58A1.1,1.1,0,0,1,326.06,250.34Z" style="fill: rgb(38, 50, 56); transform-origin: 324.994px 250.579px;" id="elnk2wki9rzba" class="animable"></path><path d="M328.25,260.62l2.12.8a1.12,1.12,0,0,1-1.44.7A1.19,1.19,0,0,1,328.25,260.62Z" style="fill: rgb(242, 143, 143); transform-origin: 329.276px 261.403px;" id="elpbhipn7hrre" class="animable"></path><path d="M336.09,251.16l-1.82-1.4a1.11,1.11,0,0,1,1.58-.24A1.21,1.21,0,0,1,336.09,251.16Z" style="fill: rgb(38, 50, 56); transform-origin: 335.289px 250.226px;" id="eledbson6tej" class="animable"></path><path d="M335.29,253.93a.93.93,0,1,1-.93-1A.95.95,0,0,1,335.29,253.93Z" style="fill: rgb(38, 50, 56); transform-origin: 334.362px 253.86px;" id="ely9tw5fru35j" class="animable"></path><polygon points="330.69 253.18 330.8 258.82 334.14 258.09 330.69 253.18" style="fill: rgb(242, 143, 143); transform-origin: 332.415px 256px;" id="el4ep3oiaaw6v" class="animable"></polygon></g></g><g id="freepik--speech-bubble--inject-8" class="animable" style="transform-origin: 351.03px 190.354px;"><g id="freepik--Bubble--inject-8" class="animable" style="transform-origin: 351.03px 190.354px;"><path d="M357,211.1l-3.3-6.21,2.66-7.66v-4.69l-8.13,4.69v4.69l3.5,6.05a.51.51,0,0,0,.23.21h0Z" style="fill: #447BF7; transform-origin: 352.615px 201.82px;" id="el5tmnkpr1g2i" class="animable"></path><g id="eln3ls3f7ysz"><g style="opacity: 0.3; transform-origin: 352.615px 201.82px;" class="animable" id="elhx19c03nf9m"><path d="M357,211.1l-3.3-6.21,2.66-7.66v-4.69l-8.13,4.69v4.69l3.5,6.05a.51.51,0,0,0,.23.21h0Z" id="elt4bheqkea2m" class="animable" style="transform-origin: 352.615px 201.82px;"></path></g></g><path d="M316.41,194.53l62.37-36.05a5.42,5.42,0,0,1,4.87,0l2,1.15a5.39,5.39,0,0,1,2.43,4.22V182a5.4,5.4,0,0,1-2.43,4.22l-62.37,36a5.36,5.36,0,0,1-4.87,0l-2-1.14a5.4,5.4,0,0,1-2.43-4.22V198.75A5.4,5.4,0,0,1,316.41,194.53Z" style="fill: #447BF7; transform-origin: 351.03px 190.354px;" id="eltx6tphx2yxk" class="animable"></path><g id="el44mmuyjp4a2"><g style="opacity: 0.4; transform-origin: 351.38px 179.107px;" class="animable" id="elivg90a71xl"><path d="M388.07,163.85c0-1.55-1.09-2.18-2.44-1.41l-62.36,36.05a5.06,5.06,0,0,0-1.73,1.82l-6.85-4a5,5,0,0,1,1.72-1.82l62.37-36a5.36,5.36,0,0,1,4.87,0l2,1.14A5.39,5.39,0,0,1,388.07,163.85Z" style="fill: rgb(255, 255, 255); transform-origin: 351.38px 179.107px;" id="el9uh1nme07m9" class="animable"></path></g></g><g id="elhvrkft7372g"><path d="M322.63,222.51a2.43,2.43,0,0,1-.48.14,4.53,4.53,0,0,1-.66.13h0a.9.9,0,0,1-.23,0l-.43,0a3.77,3.77,0,0,1-.58,0h-.11a4.51,4.51,0,0,1-.53-.09.19.19,0,0,1-.1,0,3.08,3.08,0,0,1-.54-.16,3.32,3.32,0,0,1-.54-.25l-2-1.15a5.37,5.37,0,0,1-2.43-4.22V198.75a5,5,0,0,1,.71-2.4l6.85,4a5,5,0,0,0-.71,2.4v18.12a2.45,2.45,0,0,0,.1.74,1.52,1.52,0,0,0,.27.54,1.28,1.28,0,0,0,1.3.42Z" style="opacity: 0.1; transform-origin: 318.315px 209.571px;" class="animable" id="elg23o4xio0vm"></path></g><path d="M353.33,204.86l3.49,6a.52.52,0,0,0,.94-.09l3.69-10.65v-4.69l-8.12,4.69Z" style="fill: #447BF7; transform-origin: 357.39px 203.274px;" id="el00yefw3d8xlye" class="animable"></path><path d="M333,211.91l-2.5-.66c-2.38-.63-5.22-2-5.22-5.08a8,8,0,0,1,3.87-6.1A2.43,2.43,0,0,1,333,201.9c.25-2,1.87-5.13,3.84-6.27,2.14-1.23,3.87-.5,3.87,1.64,0,3.06-2.83,7.72-5.21,11.1Z" style="fill: rgb(250, 250, 250); transform-origin: 332.995px 203.471px;" id="elw58dhbsdnbo" class="animable"></path><path d="M347.65,197.11a2.65,2.65,0,0,0,.4-.82,2.43,2.43,0,0,0,.09-.6.82.82,0,0,0-.26-.69c-.17-.12-.46-.07-.86.16a2.19,2.19,0,0,0-.84.81,3.49,3.49,0,0,0-.38,1,.77.77,0,0,1-.12.31.84.84,0,0,1-.19.19l-.82.47a.27.27,0,0,1-.21,0,.18.18,0,0,1-.07-.19,4.21,4.21,0,0,1,.24-1.16,5.34,5.34,0,0,1,.55-1.16,6.25,6.25,0,0,1,.82-1,4.69,4.69,0,0,1,1-.79,2.56,2.56,0,0,1,1.13-.41,1.24,1.24,0,0,1,.79.18,1.22,1.22,0,0,1,.46.6,2.3,2.3,0,0,1,.15.85,5.68,5.68,0,0,1,0,.59,3.19,3.19,0,0,1-.14.62,5.3,5.3,0,0,1-.34.76,9.43,9.43,0,0,1-.58,1L346.53,201l2.89-1.67a.18.18,0,0,1,.2,0,.19.19,0,0,1,.08.18v.85a.56.56,0,0,1-.08.27.58.58,0,0,1-.2.21l-4.86,2.81a.17.17,0,0,1-.19,0,.18.18,0,0,1-.09-.18v-.73a.93.93,0,0,1,.11-.41,3.32,3.32,0,0,1,.17-.31Z" style="fill: rgb(250, 250, 250); transform-origin: 346.99px 198.451px;" id="el849hs6oa02v" class="animable"></path><path d="M355.71,188.76a.19.19,0,0,1,.2,0,.18.18,0,0,1,.09.18v.85a.67.67,0,0,1-.08.29c-.05.11-.1.2-.15.29l-1.52,2.72a2.74,2.74,0,0,1,.85-.22,1.14,1.14,0,0,1,.65.12,1,1,0,0,1,.41.49,2.06,2.06,0,0,1,.15.85,3.55,3.55,0,0,1-.22,1.23,5,5,0,0,1-.59,1.17,6.15,6.15,0,0,1-.89,1,6.84,6.84,0,0,1-1.12.82,4.32,4.32,0,0,1-1.26.53,1.83,1.83,0,0,1-.9,0,.91.91,0,0,1-.54-.39,1.4,1.4,0,0,1-.22-.66.45.45,0,0,1,.08-.28.55.55,0,0,1,.2-.2l.82-.48c.07,0,.13-.05.17,0a.37.37,0,0,1,.14.14.73.73,0,0,0,.17.18.67.67,0,0,0,.28.07,1.43,1.43,0,0,0,.43-.09,3.57,3.57,0,0,0,.63-.31,3.39,3.39,0,0,0,1-.88,1.76,1.76,0,0,0,.39-1.06c0-.36-.13-.54-.39-.55a2,2,0,0,0-1,.36l-.86.49a.19.19,0,0,1-.2,0,.19.19,0,0,1-.08-.18v-.85a.55.55,0,0,1,.08-.29c.05-.11.1-.2.15-.29l1.45-2.6-2.87,1.66a.17.17,0,0,1-.19,0,.18.18,0,0,1-.09-.18v-.85a.48.48,0,0,1,.09-.27.49.49,0,0,1,.19-.21Z" style="fill: rgb(250, 250, 250); transform-origin: 353.44px 193.934px;" id="elyn3xkhctbpm" class="animable"></path><path d="M380.41,182.9a.19.19,0,0,1-.2,0c-.06,0-.08-.09-.08-.18v-1.45l-3.23,1.86a.19.19,0,0,1-.19,0,.2.2,0,0,1-.09-.18v-.86a1,1,0,0,1,.07-.33l.16-.36L380,175a1.29,1.29,0,0,1,.43-.55l.79-.45a.19.19,0,0,1,.2,0,.19.19,0,0,1,.08.18V179l.89-.52a.21.21,0,0,1,.2,0,.22.22,0,0,1,.08.18v.86a.59.59,0,0,1-.08.27.51.51,0,0,1-.2.21l-.89.52v1.45a.63.63,0,0,1-.08.28.81.81,0,0,1-.2.21Zm-.28-3.11v-2.57l-1.78,3.59Z" style="fill: rgb(250, 250, 250); transform-origin: 379.645px 178.563px;" id="elgo43jqld5iv" class="animable"></path><path d="M374.35,188.1,372.1,185v0a10.37,10.37,0,0,0,.47-3c0-3.89-2.73-5.46-6.1-3.52a13.51,13.51,0,0,0-6.11,10.57c0,3.89,2.74,5.47,6.11,3.52a12.45,12.45,0,0,0,4.31-4.55Z" style="fill: rgb(250, 250, 250); transform-origin: 367.355px 185.527px;" id="elqjikya66zh8" class="animable"></path></g></g><g id="freepik--Icons--inject-8" class="animable" style="transform-origin: 97.41px 241.301px;"><g id="freepik--icons--inject-8" class="animable" style="transform-origin: 97.41px 241.301px;"><g id="freepik--coments-icon--inject-8" class="animable" style="transform-origin: 97.4119px 327.26px;"><path d="M128.38,338.19l-8.13-11.13,0,.07A41.28,41.28,0,0,0,122.06,315c-.08-7.15-2.7-12.28-6.8-14.87h0l-7.37-4.55h0c-4.41-2.6-10.52-2.26-17.27,1.64-13.42,7.75-24.3,26.59-24.3,42.09,0,7.55,2.59,12.91,6.8,15.52h0l.21.12.24.14L80.69,359h0c4.44,2.57,10.54,2.27,17.13-1.55S110.56,346.9,115,339.3h12.86A.7.7,0,0,0,128.38,338.19Z" style="fill: #447BF7; transform-origin: 97.4169px 327.289px;" id="el6ckd2xiyfq5" class="animable"></path><g id="el6dhddzpfs8j"><path d="M80.46,358.83l-6.9-3.75-.25-.14-.2-.12h0c-4.21-2.61-6.8-8-6.8-15.52a47.44,47.44,0,0,1,5.22-20.37l7.15,4.13a47.3,47.3,0,0,0-5.22,20.37C73.47,350.87,76.16,356.22,80.46,358.83Z" style="opacity: 0.1; transform-origin: 73.385px 338.88px;" class="animable" id="ellh3xcz31afj"></path></g><g id="el756qdkvbx1b"><path d="M115.26,300.11h0c-4.53-2.88-10.89-2.66-17.7,1.34-7.65,4.5-14.46,12.59-18.86,21.59l-7.15-4.13c.06-.14.13-.28.2-.41q.36-.75.75-1.47c.17-.32.35-.63.52-.94.78-1.39,1.61-2.76,2.5-4.08l.76-1.11c.27-.39.54-.77.83-1.15s.43-.58.66-.87.49-.65.75-1l.22-.27c.32-.39.64-.77,1-1.15.85-1,1.74-1.95,2.65-2.86.34-.34.69-.68,1.05-1s.76-.71,1.15-1,.74-.65,1.12-1l.06-.05a36.75,36.75,0,0,1,3.45-2.5c.47-.31,1-.6,1.44-.88a22,22,0,0,1,10.85-3.32,12.56,12.56,0,0,1,6.42,1.67Z" style="fill: rgb(255, 255, 255); opacity: 0.3; transform-origin: 93.405px 308.444px;" class="animable" id="eljkop4w7go0h"></path></g></g><g id="freepik--heart-icon--inject-8" class="animable" style="transform-origin: 97.41px 238.529px;"><path d="M125.31,210.93h0l-6.94-4h0c-2.57-1.52-6.38-1.23-10.64,1.23-5.9,3.41-10.93,11.66-13,18.59l-4.92-2.82h0c-2.52-1.7-6-2-9.83.25-.47.28-.95.57-1.41.89-.25.17-.49.35-.73.53s-.43.3-.64.47-.64.52-1,.79l-.35.3c-.38.33-.74.67-1.1,1,0,.06-.11.11-.16.16q-.6.6-1.17,1.23l0,0a32.88,32.88,0,0,0-3.19,4.17h0C67.63,237.8,66,242.29,66,246.23c0,7.32,4.53,12,10.09,15h0l5.47,3.15h0A38.64,38.64,0,0,0,92,268.68l9,2.38,9-12.8c8.59-12.2,18.82-29,18.82-40.1C128.83,214.6,127.49,212.14,125.31,210.93Z" style="fill: #447BF7; transform-origin: 97.41px 238.529px;" id="el3dw4za0yt9k" class="animable"></path><g id="el3382886ddv4"><g style="opacity: 0.1; transform-origin: 73.735px 249.03px;" class="animable" id="elnb6ut6whcz"><path d="M81.47,264.32l-5.39-3.1c-5.55-3-10.08-7.66-10.08-15,0-3.93,1.63-8.43,4.25-12.48l7.11,4.1c-2.62,4.05-4.25,8.55-4.25,12.48C73.11,256.88,76.73,261.32,81.47,264.32Z" id="eldn6ro2gulpm" class="animable" style="transform-origin: 73.735px 249.03px;"></path></g></g><g id="el2mr8se0gbww"><path d="M125.27,210.89c-2.56-1.38-6.29-1-10.43,1.36-7.11,4.1-13,15.27-13.87,22.65-.89-6.35-6.76-10.74-13.87-6.63a29.78,29.78,0,0,0-9.74,9.58l-7.11-4.1c.11-.17.22-.34.34-.51s.18-.28.29-.42c.24-.35.49-.7.74-1a33.33,33.33,0,0,1,2.31-2.73c.2-.22.41-.43.62-.64L75,228a26.31,26.31,0,0,1,5-3.81,10.86,10.86,0,0,1,5.4-1.59,7.88,7.88,0,0,1,4.43,1.34l4.92,2.82c2.06-6.93,7.1-15.18,13-18.58,4.26-2.46,8.07-2.76,10.63-1.24h0Z" style="fill: rgb(255, 255, 255); opacity: 0.3; transform-origin: 97.76px 221.931px;" class="animable" id="el1tw4y14wsjp"></path></g></g><g id="freepik--like-icon--inject-8" class="animable" style="transform-origin: 97.415px 158.965px;"><path d="M120.78,150.81a9.59,9.59,0,0,0,3.3-6.67c0-3.65-2.71-2.84-2.71-2.84a10,10,0,0,0,2.19-5.87,3.24,3.24,0,0,0-1.41-2.92h0l-6.9-3.88c-.65-.45-1.58-.5-2.84.23l-6,3.5a16.65,16.65,0,0,0-1.35-4.69,2.85,2.85,0,0,0-1.33-1.45h0l-6.84-3.85c-2.31-1.5-6.31,1.35-6.31,2.49,0,.77.19,3.36.25,5.85,0,.55,0,1.09,0,1.61a13.92,13.92,0,0,1-.25,3.08c-.06.19-.16.49-.31.87l-.2.54c-.11.25-.22.53-.34.83-.28.71-.62,1.52-1,2.4-.1.22-.19.44-.28.67-1,2.49-2.27,5.34-3.2,7.49l-.48,1.09c-.49,1.13-.83,1.92-.94,2.16l0,0v29.48l.09,0,7,4,22.5-13c2.94-1.7,5-5.36,5-7.81a8,8,0,0,0-.58-3.24c1.91-1.1,3.82-5.09,3.82-6.79C121.67,151.49,120.78,150.81,120.78,150.81Z" style="fill: #447BF7; transform-origin: 103.955px 153.437px;" id="elxwk2fbhd3wp" class="animable"></path><g id="elqveqynlswii"><g style="opacity: 0.4; transform-origin: 106.36px 131.32px;" class="animable" id="elzqu12inomkh"><path d="M103.69,126.21c-2.33-1.14-6,1.53-6,2.64l-7.12-4c0-1.14,4-4,6.31-2.49Z" style="fill: rgb(255, 255, 255); transform-origin: 97.13px 125.39px;" id="elpg30279t40g" class="animable"></path><path d="M122.15,132.5h0a2.68,2.68,0,0,0-2.64.35l-13.6,7.86a24.65,24.65,0,0,0,.46-8.37l6-3.5a2.56,2.56,0,0,1,2.84-.23Z" style="fill: rgb(255, 255, 255); transform-origin: 114.03px 134.498px;" id="el6j93i6ege7" class="animable"></path></g></g><g id="elkblyf7yytbo"><g style="opacity: 0.1; transform-origin: 87.37px 168.14px;" class="animable" id="el2722yi6s1y5"><polygon points="90.94 184.88 83.82 180.78 83.8 151.4 90.91 155.51 90.94 184.88" id="elcox3o5hl3bk" class="animable" style="transform-origin: 87.37px 168.14px;"></polygon></g></g><g id="elix7xf2gj0m9"><g style="opacity: 0.05; transform-origin: 90.8637px 140.19px;" class="animable" id="el8uq5nj6g0o4"><path d="M97.66,139.38c-.57,2.05-6.75,16.14-6.75,16.14l-7.11-4s6.16-14.09,6.76-16.13,0-9.17,0-10.53l7.12,4C97.66,130.22,98.26,137.35,97.66,139.38Z" id="elrvj2ibkyen" class="animable" style="transform-origin: 90.8637px 140.19px;"></path></g></g><path d="M87.68,158a2.7,2.7,0,0,0-.38-1.28,2.77,2.77,0,0,0-.92-1l-4.52-2.61a2.88,2.88,0,0,0-2.59,0h0l-7.21,4.17a2.69,2.69,0,0,0-.92,1,2.73,2.73,0,0,0-.38,1.28v31.19a2.86,2.86,0,0,0,1.3,2.25l4.52,2.61a2.63,2.63,0,0,0,1.3.31,2.7,2.7,0,0,0,1.29-.3,0,0,0,0,1,0,0l7.23-4.18a2.84,2.84,0,0,0,1.3-2.24h0Z" style="fill: #447BF7; transform-origin: 79.23px 174.362px;" id="el6dpmnuaeqqk" class="animable"></path><g id="el4hbs09rrn2y"><g style="opacity: 0.1; transform-origin: 74.31px 177.155px;" class="animable" id="elti849dxwbe"><path d="M77.87,162.2V196a2.63,2.63,0,0,1-1.3-.31L72.05,193a2.86,2.86,0,0,1-1.3-2.25V159.59a2.73,2.73,0,0,1,.38-1.28Z" id="elp6e274v2o9k" class="animable" style="transform-origin: 74.31px 177.155px;"></path></g></g><g id="elw3pil7gbk69"><g style="opacity: 0.3; transform-origin: 79.215px 157.516px;" class="animable" id="elmsmllfgs6n9"><path d="M87.3,156.75l-9.43,5.45-6.74-3.89a2.69,2.69,0,0,1,.92-1l7.21-4.17h0a2.88,2.88,0,0,1,2.59,0l4.52,2.61A2.77,2.77,0,0,1,87.3,156.75Z" style="fill: rgb(255, 255, 255); transform-origin: 79.215px 157.516px;" id="el6jw7y2nhwaq" class="animable"></path></g></g></g></g></g><defs>     <filter id="active" height="200%">         <feMorphology in="SourceAlpha" result="DILATED" operator="dilate" radius="2"></feMorphology>                <feFlood flood-color="#32DFEC" flood-opacity="1" result="PINK"></feFlood>        <feComposite in="PINK" in2="DILATED" operator="in" result="OUTLINE"></feComposite>        <feMerge>            <feMergeNode in="OUTLINE"></feMergeNode>            <feMergeNode in="SourceGraphic"></feMergeNode>        </feMerge>    </filter>    <filter id="hover" height="200%">        <feMorphology in="SourceAlpha" result="DILATED" operator="dilate" radius="2"></feMorphology>                <feFlood flood-color="#ff0000" flood-opacity="0.5" result="PINK"></feFlood>        <feComposite in="PINK" in2="DILATED" operator="in" result="OUTLINE"></feComposite>        <feMerge>            <feMergeNode in="OUTLINE"></feMergeNode>            <feMergeNode in="SourceGraphic"></feMergeNode>        </feMerge>            <feColorMatrix type="matrix" values="0   0   0   0   0                0   1   0   0   0                0   0   0   0   0                0   0   0   1   0 "></feColorMatrix>    </filter></defs><defs><clipPath id="freepik--clip-path--inject-8"><polygon points="173.66 167.87 265.5 114.84 265.5 220.9 173.66 273.93 173.66 167.87" style="fill:none"></polygon></clipPath></defs></svg>